{"title":"Bengali Movie - Pratham Pratisruti (1971) - 1st On Net","uid":6487689,"size":445354001,"categoryP":"video","categoryS":"movies","magnet":"?xt=urn:btih:767fba7857386e2cfef87a5b370443a4ea66b168&amp;dn=Bengali+Movie+-+Pratham+Pratisruti+%281971%29+-+1st+On+Net&amp;tr=udp%3A%2F%2Ftracker.openbittorrent.com%3A80&amp;tr=udp%3A%2F%2Fopen.demonii.com%3A1337&amp;tr=udp%3A%2F%2Ftracker.coppersurfer.tk%3A6969&amp;tr=udp%3A%2F%2Fexodus.desync.com%3A6969","seeders":0,"leechers":1,"uploader":"Robin5555","files":4,"time":1308762185,"description":"***************************** TPB IS BENEDICTION TO ME ****************************\n*                                                                                 *\n*\t\t\t\t\t\t\t\t\t\t  *\n*\t        *                       *                       *\t          *\n*              ***                     ***                     ***                *\n*\t      *****                   *****                   *****\t\t  *\n*            *******                 *******                 *******\t\t  *\n*           *********\t\t    *********               *********             *\n*          ***********\t           ***********             *********** \t\t  *\n*         *************           *************           *************           *\n*        ***************         ***************         ***************\t  *\n*       *****************       *****************       *****************         *\n*      *******************     *******************     *******************        *\n*     *** TPB IS D BEST ***   *** TPB IS D BEST ***   *** TPB IS D BEST *** \t  *\n*      *******************     *******************     *******************\t  *\n*       *****************       *****************       *****************         *\n*        ***************         ***************         ***************          *\n*         *************           *************           *************\t \t  *\n*          ***********             ***********             ***********            *\n*           *********               *********               *********             *\n*            *******                 *******                 *******              *\n*             *****                   *****\t\t      *****               *\n*\t       ***                     ***                     ***                *\n*\t        *                       *                       *                 *\n*\t\t\t\t\t\t\t\t\t\t  *\n*\t\t\t\t\t\t\t\t\t\t  *\n***************************** TPB IS BENEDICTION TO ME ****************************\n\n\n\nScreen Link :---\n\n &lt;a href=&quot;\nhttp://www.shotpix.com/images/90300413697359709340.jpg&quot; rel=&quot;nofollow&quot; target=&quot;_NEW&quot;&gt;\nhttp://www.shotpix.com/images/90300413697359709340.jpg&lt;/a&gt;\n &lt;a href=&quot;\nhttp://www.shotpix.com/images/11860231441429028268.jpg&quot; rel=&quot;nofollow&quot; target=&quot;_NEW&quot;&gt;\nhttp://www.shotpix.com/images/11860231441429028268.jpg&lt;/a&gt;\n\n\n\nCast &amp; crew details :---\n\n                   \nJahar Roy,Nripati Chattyopadhyay,Samit Bhanja,Basanta Chowdhury,Chinmoy Ray,\nNirmal Ghosh,Sabitri Chattopadhyay,Gita Dey,Kajal Gupta,Malina Debi,Padma Devi,Sonali Gupta,Partha Mukhopadhyay,Anubha Gupta,Tapati Ghosh,Hasu Bandyopadhyay,Shekher Chattopadhyay.\n\n\nDirector            : Dinen Gupta\n\nMusic Director      : Nihar Ray\n\nBanner              : Kasturi Films\n\n\nGeneral Info :---  (Disc 1) :---\n\nFormat                           : Matroska\nFile size                        : 212 MiB\nDuration                         : 1h 2mn\nOverall bit rate                 : 471 Kbps\n\nVideo\nID                               : 1\nFormat                           : AVC\nFormat/Info                      : Advanced Video Codec\nFormat profile                   : &lt;a class=&quot;__cf_email__&quot; href=&quot;/cdn-cgi/l/email-protection&quot; data-cfemail=&quot;0e466769664e423a203e&quot;&gt;[email&amp;#160;protected]&lt;/a&gt;&lt;script cf-hash='f9e31' type=&quot;text/javascript&quot;&gt;\n/* &lt;![CDATA[ */!function(){try{var t=&quot;currentScript&quot;in document?document.currentScript:function(){for(var t=document.getElementsByTagName(&quot;script&quot;),e=t.length;e--;)if(t[e].getAttribute(&quot;cf-hash&quot;))return t[e]}();if(t&amp;&amp;t.previousSibling){var e,r,n,i,c=t.previousSibling,a=c.getAttribute(&quot;data-cfemail&quot;);if(a){for(e=&quot;&quot;,r=parseInt(a.substr(0,2),16),n=2;a.length-n;n+=2)i=parseInt(a.substr(n,2),16)^r,e+=String.fromCharCode(i);e=document.createTextNode(e),c.parentNode.replaceChild(e,c)}}}catch(u){}}();/* ]]&gt; */&lt;/script&gt;\nFormat settings, CABAC           : Yes\nFormat settings, ReFrames        : 3 frames\nCodec ID                         : V_MPEG4/ISO/AVC\nDuration                         : 1h 2mn\nBit rate mode                    : Variable\nBit rate                         : 342 Kbps\nMaximum bit rate                 : 25.0 Mbps\nWidth                            : 352 pixels\nHeight                           : 288 pixels\nDisplay aspect ratio             : 1.222\nFrame rate                       : 23.976 fps\nStandard                         : PAL\nColor space                      : YUV\nChroma subsampling               : 4:2:0\nBit depth                        : 8 bits\nScan type                        : Progressive\nBits/(Pixel*Frame)               : 0.141\n\n\nAudio\nID                               : 2\nFormat                           : MPEG Audio\nFormat version                   : Version 1\nFormat profile                   : Layer 2\nCodec ID                         : A_MPEG/L2\nCodec ID/Hint                    : MP2\nDuration                         : 1h 2mn\nBit rate mode                    : Constant\nBit rate                         : 128 Kbps\nChannel(s)                       : 2 channels\nSampling rate                    : 44.1 KHz\nCompression mode                 : Lossy\nStream size                      : 57.7 MiB (27%)\n\n\nGeneral Info :---  (Disc 2) :---\n\nFormat                           : Matroska\nFile size                        : 212 MiB\nDuration                         : 1h 2mn\nOverall bit rate                 : 472 Kbps\n\nVideo\nID                               : 1\nFormat                           : AVC\nFormat/Info                      : Advanced Video Codec\nFormat profile                   : &lt;a class=&quot;__cf_email__&quot; href=&quot;/cdn-cgi/l/email-protection&quot; data-cfemail=&quot;0d45646a654d4139233d&quot;&gt;[email&amp;#160;protected]&lt;/a&gt;&lt;script cf-hash='f9e31' type=&quot;text/javascript&quot;&gt;\n/* &lt;![CDATA[ */!function(){try{var t=&quot;currentScript&quot;in document?document.currentScript:function(){for(var t=document.getElementsByTagName(&quot;script&quot;),e=t.length;e--;)if(t[e].getAttribute(&quot;cf-hash&quot;))return t[e]}();if(t&amp;&amp;t.previousSibling){var e,r,n,i,c=t.previousSibling,a=c.getAttribute(&quot;data-cfemail&quot;);if(a){for(e=&quot;&quot;,r=parseInt(a.substr(0,2),16),n=2;a.length-n;n+=2)i=parseInt(a.substr(n,2),16)^r,e+=String.fromCharCode(i);e=document.createTextNode(e),c.parentNode.replaceChild(e,c)}}}catch(u){}}();/* ]]&gt; */&lt;/script&gt;\nFormat settings, CABAC           : Yes\nFormat settings, ReFrames        : 3 frames\nCodec ID                         : V_MPEG4/ISO/AVC\nDuration                         : 1h 2mn\nBit rate mode                    : Variable\nBit rate                         : 343 Kbps\nMaximum bit rate                 : 25.0 Mbps\nWidth                            : 352 pixels\nHeight                           : 288 pixels\nDisplay aspect ratio             : 1.222\nFrame rate                       : 23.976 fps\nStandard                         : PAL\nColor space                      : YUV\nChroma subsampling               : 4:2:0\nBit depth                        : 8 bits\nScan type                        : Progressive\nBits/(Pixel*Frame)               : 0.141\n\nAudio\nID                               : 2\nFormat                           : MPEG Audio\nFormat version                   : Version 1\nFormat profile                   : Layer 2\nCodec ID                         : A_MPEG/L2\nCodec ID/Hint                    : MP2\nDuration                         : 1h 2mn\nBit rate mode                    : Constant\nBit rate                         : 128 Kbps\nChannel(s)                       : 2 channels\nSampling rate                    : 44.1 KHz\nCompression mode                 : Lossy\nStream size                      : 57.6 MiB (27%)\n\n\n\n***************************** TPB IS BENEDICTION TO ME ****************************\n*                                                                                 *\n*\t\t\t\t\t\t\t\t\t\t  *\n*\t        *                       *                       *\t          *\n*              ***                     ***                     ***                *\n*\t      *****                   *****                   *****\t\t  *\n*            *******                 *******                 *******\t\t  *\n*           *********\t\t    *********               *********             *\n*          ***********\t           ***********             *********** \t\t  *\n*         *************           *************           *************           *\n*        ***************         ***************         ***************\t  *\n*       *****************       *****************       *****************         *\n*      *******************     *******************     *******************        *\n*     *** TPB IS D BEST ***   *** TPB IS D BEST ***   *** TPB IS D BEST *** \t  *\n*      *******************     *******************     *******************\t  *\n*       *****************       *****************       *****************         *\n*        ***************         ***************         ***************          *\n*         *************           *************           *************\t \t  *\n*          ***********             ***********             ***********            *\n*           *********               *********               *********             *\n*            *******                 *******                 *******              *\n*             *****                   *****\t\t      *****               *\n*\t       ***                     ***                     ***                *\n*\t        *                       *                       *                 *\n*\t\t\t\t\t\t\t\t\t\t  *\n*\t\t\t\t\t\t\t\t\t\t  *\n***************************** TPB IS BENEDICTION TO ME ****************************\n\n\n\n","torrent":{"xt":"urn:btih:767fba7857386e2cfef87a5b370443a4ea66b168","amp;dn":"Bengali+Movie+-+Pratham+Pratisruti+%281971%29+-+1st+On+Net","amp;tr":["udp%3A%2F%2Ftracker.openbittorrent.com%3A80","udp%3A%2F%2Fopen.demonii.com%3A1337","udp%3A%2F%2Ftracker.coppersurfer.tk%3A6969","udp%3A%2F%2Fexodus.desync.com%3A6969"],"infoHash":"767fba7857386e2cfef87a5b370443a4ea66b168","infoHashBuffer":{"type":"Buffer","data":[118,127,186,120,87,56,110,44,254,248,122,91,55,4,67,164,234,102,177,104]},"announce":[],"urlList":[]}}